{
    "asset" : {
        "generator" : "Khronos glTF Blender I/O v3.4.49",
        "version" : "2.0"
    },
    "extensionsUsed" : [
        "KHR_materials_clearcoat"
    ],
    "scene" : 0,
    "scenes" : [
        {
            "name" : "Scene",
            "nodes" : [
                0,
                1,
                2,
                3,
                4
            ]
        }
    ],
    "nodes" : [
        {
            "mesh" : 0,
            "name" : "Reed",
            "scale" : [
                308.52239990234375,
                308.52239990234375,
                308.52239990234375
            ]
        },
        {
            "mesh" : 1,
            "name" : "bigger eye",
            "scale" : [
                308.52239990234375,
                308.52239990234375,
                308.52239990234375
            ]
        },
        {
            "mesh" : 2,
            "name" : "bird",
            "scale" : [
                308.52239990234375,
                308.52239990234375,
                308.52239990234375
            ]
        },
        {
            "mesh" : 3,
            "name" : "bird's eye",
            "scale" : [
                308.52239990234375,
                308.52239990234375,
                308.52239990234375
            ]
        },
        {
            "mesh" : 4,
            "name" : "Chin",
            "scale" : [
                308.52239990234375,
                308.52239990234375,
                308.52239990234375
            ]
        }
    ],
    "materials" : [
        {
            "doubleSided" : true,
            "extensions" : {
                "KHR_materials_clearcoat" : {
                    "clearcoatFactor" : 1,
                    "clearcoatRoughnessFactor" : 0.029999999329447746
                }
            },
            "name" : "SVGMat.001",
            "pbrMetallicRoughness" : {
                "baseColorFactor" : [
                    0.800000011920929,
                    0.800000011920929,
                    0.800000011920929,
                    1
                ],
                "metallicFactor" : 0,
                "roughnessFactor" : 0.5
            }
        }
    ],
    "meshes" : [
        {
            "name" : "e5e5t0dwj7mp3",
            "primitives" : [
                {
                    "attributes" : {
                        "POSITION" : 0,
                        "TEXCOORD_0" : 1,
                        "NORMAL" : 2
                    },
                    "indices" : 3,
                    "material" : 0
                }
            ]
        },
        {
            "name" : "e5e5t0dwj7mp4",
            "primitives" : [
                {
                    "attributes" : {
                        "POSITION" : 4,
                        "TEXCOORD_0" : 5,
                        "NORMAL" : 6
                    },
                    "indices" : 7,
                    "material" : 0
                }
            ]
        },
        {
            "name" : "e5e5t0dwj7mp6",
            "primitives" : [
                {
                    "attributes" : {
                        "POSITION" : 8,
                        "TEXCOORD_0" : 9,
                        "NORMAL" : 10
                    },
                    "indices" : 11,
                    "material" : 0
                }
            ]
        },
        {
            "name" : "e5e5t0dwj7mp7",
            "primitives" : [
                {
                    "attributes" : {
                        "POSITION" : 12,
                        "TEXCOORD_0" : 13,
                        "NORMAL" : 14
                    },
                    "indices" : 15,
                    "material" : 0
                }
            ]
        },
        {
            "name" : "e5e5t0dwj7mp8",
            "primitives" : [
                {
                    "attributes" : {
                        "POSITION" : 16,
                        "TEXCOORD_0" : 17,
                        "NORMAL" : 18
                    },
                    "indices" : 19,
                    "material" : 0
                }
            ]
        }
    ],
    "accessors" : [
        {
            "bufferView" : 0,
            "componentType" : 5126,
            "count" : 3426,
            "max" : [
                0.0197512935847044,
                0.0010100000072270632,
                -0.04699145257472992
            ],
            "min" : [
                0.013663388788700104,
                -0.0010100000072270632,
                -0.07287023961544037
            ],
            "type" : "VEC3"
        },
        {
            "bufferView" : 1,
            "componentType" : 5126,
            "count" : 3426,
            "type" : "VEC2"
        },
        {
            "bufferView" : 2,
            "componentType" : 5126,
            "count" : 3426,
            "type" : "VEC3"
        },
        {
            "bufferView" : 3,
            "componentType" : 5123,
            "count" : 14904,
            "type" : "SCALAR"
        },
        {
            "bufferView" : 4,
            "componentType" : 5126,
            "count" : 5320,
            "max" : [
                0.04923161864280701,
                0.0010100000072270632,
                -0.05263439565896988
            ],
            "min" : [
                0.021001236513257027,
                -0.0010100000072270632,
                -0.05985885486006737
            ],
            "type" : "VEC3"
        },
        {
            "bufferView" : 5,
            "componentType" : 5126,
            "count" : 5320,
            "type" : "VEC2"
        },
        {
            "bufferView" : 6,
            "componentType" : 5126,
            "count" : 5320,
            "type" : "VEC3"
        },
        {
            "bufferView" : 7,
            "componentType" : 5123,
            "count" : 22632,
            "type" : "SCALAR"
        },
        {
            "bufferView" : 8,
            "componentType" : 5126,
            "count" : 13218,
            "max" : [
                0.06309127807617188,
                0.0010100000072270632,
                -0.028475821018218994
            ],
            "min" : [
                0.04347677528858185,
                -0.0010100000072270632,
                -0.053847648203372955
            ],
            "type" : "VEC3"
        },
        {
            "bufferView" : 9,
            "componentType" : 5126,
            "count" : 13218,
            "type" : "VEC2"
        },
        {
            "bufferView" : 10,
            "componentType" : 5126,
            "count" : 13218,
            "type" : "VEC3"
        },
        {
            "bufferView" : 11,
            "componentType" : 5123,
            "count" : 57264,
            "type" : "SCALAR"
        },
        {
            "bufferView" : 12,
            "componentType" : 5126,
            "count" : 62,
            "max" : [
                0.04894179105758667,
                0,
                -0.05009756609797478
            ],
            "min" : [
                0.04719746485352516,
                0,
                -0.05150097981095314
            ],
            "type" : "VEC3"
        },
        {
            "bufferView" : 13,
            "componentType" : 5126,
            "count" : 62,
            "type" : "VEC2"
        },
        {
            "bufferView" : 14,
            "componentType" : 5126,
            "count" : 62,
            "type" : "VEC3"
        },
        {
            "bufferView" : 15,
            "componentType" : 5123,
            "count" : 138,
            "type" : "SCALAR"
        },
        {
            "bufferView" : 16,
            "componentType" : 5126,
            "count" : 3378,
            "max" : [
                0.057766471058130264,
                0.0010999999940395355,
                -0.012164071202278137
            ],
            "min" : [
                0.01732742227613926,
                -0.0010999999940395355,
                -0.047356732189655304
            ],
            "type" : "VEC3"
        },
        {
            "bufferView" : 17,
            "componentType" : 5126,
            "count" : 3378,
            "type" : "VEC2"
        },
        {
            "bufferView" : 18,
            "componentType" : 5126,
            "count" : 3378,
            "type" : "VEC3"
        },
        {
            "bufferView" : 19,
            "componentType" : 5123,
            "count" : 14676,
            "type" : "SCALAR"
        }
    ],
    "bufferViews" : [
        {
            "buffer" : 0,
            "byteLength" : 41112,
            "byteOffset" : 0,
            "target" : 34962
        },
        {
            "buffer" : 0,
            "byteLength" : 27408,
            "byteOffset" : 41112,
            "target" : 34962
        },
        {
            "buffer" : 0,
            "byteLength" : 41112,
            "byteOffset" : 68520,
            "target" : 34962
        },
        {
            "buffer" : 0,
            "byteLength" : 29808,
            "byteOffset" : 109632,
            "target" : 34963
        },
        {
            "buffer" : 0,
            "byteLength" : 63840,
            "byteOffset" : 139440,
            "target" : 34962
        },
        {
            "buffer" : 0,
            "byteLength" : 42560,
            "byteOffset" : 203280,
            "target" : 34962
        },
        {
            "buffer" : 0,
            "byteLength" : 63840,
            "byteOffset" : 245840,
            "target" : 34962
        },
        {
            "buffer" : 0,
            "byteLength" : 45264,
            "byteOffset" : 309680,
            "target" : 34963
        },
        {
            "buffer" : 0,
            "byteLength" : 158616,
            "byteOffset" : 354944,
            "target" : 34962
        },
        {
            "buffer" : 0,
            "byteLength" : 105744,
            "byteOffset" : 513560,
            "target" : 34962
        },
        {
            "buffer" : 0,
            "byteLength" : 158616,
            "byteOffset" : 619304,
            "target" : 34962
        },
        {
            "buffer" : 0,
            "byteLength" : 114528,
            "byteOffset" : 777920,
            "target" : 34963
        },
        {
            "buffer" : 0,
            "byteLength" : 744,
            "byteOffset" : 892448,
            "target" : 34962
        },
        {
            "buffer" : 0,
            "byteLength" : 496,
            "byteOffset" : 893192,
            "target" : 34962
        },
        {
            "buffer" : 0,
            "byteLength" : 744,
            "byteOffset" : 893688,
            "target" : 34962
        },
        {
            "buffer" : 0,
            "byteLength" : 276,
            "byteOffset" : 894432,
            "target" : 34963
        },
        {
            "buffer" : 0,
            "byteLength" : 40536,
            "byteOffset" : 894708,
            "target" : 34962
        },
        {
            "buffer" : 0,
            "byteLength" : 27024,
            "byteOffset" : 935244,
            "target" : 34962
        },
        {
            "buffer" : 0,
            "byteLength" : 40536,
            "byteOffset" : 962268,
            "target" : 34962
        },
        {
            "buffer" : 0,
            "byteLength" : 29352,
            "byteOffset" : 1002804,
            "target" : 34963
        }
    ],
    "buffers" : [
        {
            "byteLength" : 1032156,
            "uri" : "data:application/octet-stream;base64,"
        }
    ]
}
