{
    "asset" : {
        "generator" : "Khronos glTF Blender I/O v3.4.49",
        "version" : "2.0"
    },
    "extensionsUsed" : [
        "KHR_materials_clearcoat"
    ],
    "scene" : 0,
    "scenes" : [
        {
            "name" : "Scene",
            "nodes" : [
                0,
                1,
                2,
                3,
                4
            ]
        }
    ],
    "nodes" : [
        {
            "mesh" : 0,
            "name" : "Reed",
            "scale" : [
                308.52239990234375,
                308.52239990234375,
                308.52239990234375
            ],
            "translation" : [
                -4.612119197845459,
                -2.757542371749878,
                -8.39122486114502
            ]
        },
        {
            "mesh" : 1,
            "name" : "bigger eye",
            "scale" : [
                308.52239990234375,
                308.52239990234375,
                308.52239990234375
            ],
            "translation" : [
                0.8315006494522095,
                -2.757542371749878,
                -7.418755531311035
            ]
        },
        {
            "mesh" : 2,
            "name" : "bird",
            "scale" : [
                308.52239990234375,
                308.52239990234375,
                308.52239990234375
            ],
            "translation" : [
                6.258836269378662,
                -2.757542371749878,
                -2.3254451751708984
            ]
        },
        {
            "mesh" : 3,
            "name" : "bird's eye",
            "scale" : [
                308.52239990234375,
                308.52239990234375,
                308.52239990234375
            ],
            "translation" : [
                4.9124627113342285,
                -2.757542371749878,
                -6.018342018127441
            ]
        },
        {
            "mesh" : 4,
            "name" : "Chin",
            "scale" : [
                308.52239990234375,
                308.52239990234375,
                308.52239990234375
            ],
            "translation" : [
                2.961648464202881,
                -2.757542371749878,
                2.07900333404541
            ]
        }
    ],
    "materials" : [
        {
            "doubleSided" : true,
            "extensions" : {
                "KHR_materials_clearcoat" : {
                    "clearcoatFactor" : 1,
                    "clearcoatRoughnessFactor" : 0.029999999329447746
                }
            },
            "name" : "SVGMat.001",
            "pbrMetallicRoughness" : {
                "baseColorFactor" : [
                    0.800000011920929,
                    0.800000011920929,
                    0.800000011920929,
                    1
                ],
                "metallicFactor" : 0,
                "roughnessFactor" : 0.5
            }
        }
    ],
    "meshes" : [
        {
            "name" : "e5e5t0dwj7mp3",
            "primitives" : [
                {
                    "attributes" : {
                        "POSITION" : 0,
                        "TEXCOORD_0" : 1,
                        "NORMAL" : 2
                    },
                    "indices" : 3,
                    "material" : 0
                }
            ]
        },
        {
            "name" : "e5e5t0dwj7mp4",
            "primitives" : [
                {
                    "attributes" : {
                        "POSITION" : 4,
                        "TEXCOORD_0" : 5,
                        "NORMAL" : 6
                    },
                    "indices" : 7,
                    "material" : 0
                }
            ]
        },
        {
            "name" : "e5e5t0dwj7mp6",
            "primitives" : [
                {
                    "attributes" : {
                        "POSITION" : 8,
                        "TEXCOORD_0" : 9,
                        "NORMAL" : 10
                    },
                    "indices" : 11,
                    "material" : 0
                }
            ]
        },
        {
            "name" : "e5e5t0dwj7mp7",
            "primitives" : [
                {
                    "attributes" : {
                        "POSITION" : 12,
                        "TEXCOORD_0" : 13,
                        "NORMAL" : 14
                    },
                    "indices" : 15,
                    "material" : 0
                }
            ]
        },
        {
            "name" : "e5e5t0dwj7mp8",
            "primitives" : [
                {
                    "attributes" : {
                        "POSITION" : 16,
                        "TEXCOORD_0" : 17,
                        "NORMAL" : 18
                    },
                    "indices" : 19,
                    "material" : 0
                }
            ]
        }
    ],
    "accessors" : [
        {
            "bufferView" : 0,
            "componentType" : 5126,
            "count" : 3492,
            "max" : [
                0.0025975604075938463,
                0.0010100000072270632,
                0.011561061255633831
            ],
            "min" : [
                -0.003490343689918518,
                -0.0010100000072270632,
                -0.014317737892270088
            ],
            "type" : "VEC3"
        },
        {
            "bufferView" : 1,
            "componentType" : 5126,
            "count" : 3492,
            "type" : "VEC2"
        },
        {
            "bufferView" : 2,
            "componentType" : 5126,
            "count" : 3492,
            "type" : "VEC3"
        },
        {
            "bufferView" : 3,
            "componentType" : 5123,
            "count" : 14904,
            "type" : "SCALAR"
        },
        {
            "bufferView" : 4,
            "componentType" : 5126,
            "count" : 5304,
            "max" : [
                0.01443371269851923,
                0.0010100000072270632,
                0.0027660864870995283
            ],
            "min" : [
                -0.01379666943103075,
                -0.0010100000072270632,
                -0.004458371549844742
            ],
            "type" : "VEC3"
        },
        {
            "bufferView" : 5,
            "componentType" : 5126,
            "count" : 5304,
            "type" : "VEC2"
        },
        {
            "bufferView" : 6,
            "componentType" : 5126,
            "count" : 5304,
            "type" : "VEC3"
        },
        {
            "bufferView" : 7,
            "componentType" : 5123,
            "count" : 22632,
            "type" : "SCALAR"
        },
        {
            "bufferView" : 8,
            "componentType" : 5126,
            "count" : 13182,
            "max" : [
                0.010701998136937618,
                0.0010100000072270632,
                0.01041596569120884
            ],
            "min" : [
                -0.008912506513297558,
                -0.0010100000072270632,
                -0.014955857768654823
            ],
            "type" : "VEC3"
        },
        {
            "bufferView" : 9,
            "componentType" : 5126,
            "count" : 13182,
            "type" : "VEC2"
        },
        {
            "bufferView" : 10,
            "componentType" : 5126,
            "count" : 13182,
            "type" : "VEC3"
        },
        {
            "bufferView" : 11,
            "componentType" : 5123,
            "count" : 57264,
            "type" : "SCALAR"
        },
        {
            "bufferView" : 12,
            "componentType" : 5126,
            "count" : 65,
            "max" : [
                0.000916456978302449,
                0,
                0.0007638301467522979
            ],
            "min" : [
                -0.0008278687600977719,
                0,
                -0.000639582343865186
            ],
            "type" : "VEC3"
        },
        {
            "bufferView" : 13,
            "componentType" : 5126,
            "count" : 65,
            "type" : "VEC2"
        },
        {
            "bufferView" : 14,
            "componentType" : 5126,
            "count" : 65,
            "type" : "VEC3"
        },
        {
            "bufferView" : 15,
            "componentType" : 5123,
            "count" : 138,
            "type" : "SCALAR"
        },
        {
            "bufferView" : 16,
            "componentType" : 5126,
            "count" : 3388,
            "max" : [
                0.016064222902059555,
                0.0010999999940395355,
                0.012451759539544582
            ],
            "min" : [
                -0.02437482215464115,
                -0.0010999999940395355,
                -0.022740911692380905
            ],
            "type" : "VEC3"
        },
        {
            "bufferView" : 17,
            "componentType" : 5126,
            "count" : 3388,
            "type" : "VEC2"
        },
        {
            "bufferView" : 18,
            "componentType" : 5126,
            "count" : 3388,
            "type" : "VEC3"
        },
        {
            "bufferView" : 19,
            "componentType" : 5123,
            "count" : 14676,
            "type" : "SCALAR"
        }
    ],
    "bufferViews" : [
        {
            "buffer" : 0,
            "byteLength" : 41904,
            "byteOffset" : 0,
            "target" : 34962
        },
        {
            "buffer" : 0,
            "byteLength" : 27936,
            "byteOffset" : 41904,
            "target" : 34962
        },
        {
            "buffer" : 0,
            "byteLength" : 41904,
            "byteOffset" : 69840,
            "target" : 34962
        },
        {
            "buffer" : 0,
            "byteLength" : 29808,
            "byteOffset" : 111744,
            "target" : 34963
        },
        {
            "buffer" : 0,
            "byteLength" : 63648,
            "byteOffset" : 141552,
            "target" : 34962
        },
        {
            "buffer" : 0,
            "byteLength" : 42432,
            "byteOffset" : 205200,
            "target" : 34962
        },
        {
            "buffer" : 0,
            "byteLength" : 63648,
            "byteOffset" : 247632,
            "target" : 34962
        },
        {
            "buffer" : 0,
            "byteLength" : 45264,
            "byteOffset" : 311280,
            "target" : 34963
        },
        {
            "buffer" : 0,
            "byteLength" : 158184,
            "byteOffset" : 356544,
            "target" : 34962
        },
        {
            "buffer" : 0,
            "byteLength" : 105456,
            "byteOffset" : 514728,
            "target" : 34962
        },
        {
            "buffer" : 0,
            "byteLength" : 158184,
            "byteOffset" : 620184,
            "target" : 34962
        },
        {
            "buffer" : 0,
            "byteLength" : 114528,
            "byteOffset" : 778368,
            "target" : 34963
        },
        {
            "buffer" : 0,
            "byteLength" : 780,
            "byteOffset" : 892896,
            "target" : 34962
        },
        {
            "buffer" : 0,
            "byteLength" : 520,
            "byteOffset" : 893676,
            "target" : 34962
        },
        {
            "buffer" : 0,
            "byteLength" : 780,
            "byteOffset" : 894196,
            "target" : 34962
        },
        {
            "buffer" : 0,
            "byteLength" : 276,
            "byteOffset" : 894976,
            "target" : 34963
        },
        {
            "buffer" : 0,
            "byteLength" : 40656,
            "byteOffset" : 895252,
            "target" : 34962
        },
        {
            "buffer" : 0,
            "byteLength" : 27104,
            "byteOffset" : 935908,
            "target" : 34962
        },
        {
            "buffer" : 0,
            "byteLength" : 40656,
            "byteOffset" : 963012,
            "target" : 34962
        },
        {
            "buffer" : 0,
            "byteLength" : 29352,
            "byteOffset" : 1003668,
            "target" : 34963
        }
    ],
    "buffers" : [
        {
            "byteLength" : 1033020,
            "uri" : "data:application/octet-stream;base64,"
        }
    ]
}
